<svg width="16" height="16" viewBox="0 0 16 16" fill="none" xmlns="http://www.w3.org/2000/svg">
  <path fill-rule="evenodd" clip-rule="evenodd"
    d="M1 4V14C1 14.5523 1.44772 15 2 15H14C14.5523 15 15 14.5523 15 14V4H1ZM2 1C0.895431 1 0 1.89543 0 3V14C0 15.1046 0.895431 16 2 16H14C15.1046 16 16 15.1046 16 14V3C16 1.89543 15.1046 1 14 1H2Z"
    fill="#A6B7D4" />
  <path fill-rule="evenodd" clip-rule="evenodd"
    d="M3.5 0C3.77614 0 4 0.223858 4 0.5V1C4 1.27614 3.77614 1.5 3.5 1.5C3.22386 1.5 3 1.27614 3 1V0.5C3 0.223858 3.22386 0 3.5 0Z"
    fill="#A6B7D4" />
  <path fill-rule="evenodd" clip-rule="evenodd"
    d="M12.5 0C12.7761 0 13 0.223858 13 0.5V1C13 1.27614 12.7761 1.5 12.5 1.5C12.2239 1.5 12 1.27614 12 1V0.5C12 0.223858 12.2239 0 12.5 0Z"
    fill="#A6B7D4" />
  <rect x="11" y="6" width="2" height="2" rx="0.5" fill="#A6B7D4" />
</svg>
  