<svg width="12" height="12" viewBox="0 0 12 12" fill="none" xmlns="http://www.w3.org/2000/svg">
  <mask id="mask0_1755_2534" style="mask-type:alpha" maskUnits="userSpaceOnUse" x="-1" y="0"
    width="13" height="12">
    <path fill-rule="evenodd" clip-rule="evenodd"
      d="M5.99902 0C6.66177 0 7.19902 0.537258 7.19902 1.2V4.8H10.799C11.4618 4.8 11.999 5.33726 11.999 6C11.999 6.66274 11.4618 7.2 10.799 7.2H7.19902V10.8C7.19902 11.4627 6.66177 12 5.99902 12C5.33628 12 4.79902 11.4627 4.79902 10.8V7.2H1.19902C0.536282 7.2 -0.000976562 6.66274 -0.000976562 6C-0.000976562 5.33726 0.536282 4.8 1.19902 4.8H4.79902V1.2C4.79902 0.537258 5.33628 0 5.99902 0Z"
      fill="black" />
  </mask>
  <g mask="url(#mask0_1755_2534)">
    <rect x="-0.000976562" width="12" height="12" fill="white" />
  </g>
</svg>
  