<svg width="41" height="40" viewBox="0 0 41 40" fill="none" xmlns="http://www.w3.org/2000/svg">
  <rect x="0.333008" width="40" height="40" rx="10" fill="url(#paint0_linear_1713_1105)"/>
  <path fill-rule="evenodd" clip-rule="evenodd" d="M23.4993 28.0789C23.4993 28.8209 24.4618 29.1123 24.8734 28.4949L31.1664 19.0553C31.4987 18.5569 31.1414 17.8893 30.5424 17.8893H25.6105V11.9219C25.6105 11.1798 24.648 10.8885 24.2364 11.5059L17.9434 20.9455C17.6111 21.4439 17.9684 22.1115 18.5674 22.1115H23.4993V28.0789Z" fill="white"/>
  <path opacity="0.3" fill-rule="evenodd" clip-rule="evenodd" d="M10.8328 14.1113C10.8328 13.2829 11.5044 12.6113 12.3328 12.6113H17.7772C18.6057 12.6113 19.2772 13.2829 19.2772 14.1113V14.278C19.2772 15.1064 18.6057 15.778 17.7772 15.778H12.3328C11.5044 15.778 10.8328 15.1064 10.8328 14.278V14.1113ZM10.8328 26.778C10.8328 25.9496 11.5044 25.278 12.3328 25.278H17.7772C18.6057 25.278 19.2772 25.9496 19.2772 26.778V26.9447C19.2772 27.7731 18.6057 28.4447 17.7772 28.4447H12.3328C11.5044 28.4447 10.8328 27.7731 10.8328 26.9447V26.778ZM10.2217 18.9447C9.39325 18.9447 8.72168 19.6162 8.72168 20.4447V20.6113C8.72168 21.4398 9.39325 22.1113 10.2217 22.1113H14.6106C15.439 22.1113 16.1106 21.4398 16.1106 20.6113V20.4447C16.1106 19.6162 15.439 18.9447 14.6106 18.9447H10.2217Z" fill="white"/>
  <defs>
  <linearGradient id="paint0_linear_1713_1105" x1="40.333" y1="0" x2="0.333008" y2="40" gradientUnits="userSpaceOnUse">
  <stop stop-color="#BB65FF"/>
  <stop offset="1" stop-color="#4C6FFF"/>
  </linearGradient>
  </defs>
  </svg>
  